<?xml version="1.0" encoding="utf-8"?>
<!-- Generator: Adobe Illustrator 23.0.0, SVG Export Plug-In . SVG Version: 6.00 Build 0)  -->
<svg version="1.1" xmlns="http://www.w3.org/2000/svg" xmlns:xlink="http://www.w3.org/1999/xlink" x="0px" y="0px"
	 viewBox="0 0 36.2 36" style="enable-background:new 0 0 36.2 36;" xml:space="preserve">
<style type="text/css">
	.st0{fill-rule:evenodd;clip-rule:evenodd;fill:#F23900;}
	.st1{fill-rule:evenodd;clip-rule:evenodd;fill:#BF360C;fill-opacity:0.2;}
	.st2{fill-rule:evenodd;clip-rule:evenodd;fill:#FFFFFF;fill-opacity:0.2;}
	.st3{fill:url(#SVGID_1_);}
	.st4{fill-rule:evenodd;clip-rule:evenodd;fill:#F99082;}
	.st5{fill-rule:evenodd;clip-rule:evenodd;fill:url(#SVGID_2_);fill-opacity:0.1;}
	.st6{display:none;fill-rule:evenodd;clip-rule:evenodd;fill:#F1F1F1;}
	.st7{fill:#F1F1F1;}
	.st8{font-family:'NirmalaUI-Bold';}
	.st9{font-size:26.108px;}
</style>
<g id="icon">
	<g id="slides-bg" transform="translate(0,564)">
		<g>
			<path class="st0" d="M7.8-564h14.5l9,9v24.5c0,1.4-1.1,2.5-2.5,2.5h-21c-1.4,0-2.5-1.1-2.5-2.5v-31C5.3-562.9,6.4-564,7.8-564z"
				/>
			<path class="st1" d="M5.3-531c0,1.4,1.1,2.5,2.5,2h21c1.4,0.5,2.5-0.6,2.5-2v0.5c0,1.4-1.1,2.5-2.5,2.5h-21
				c-1.4,0-2.5-1.1-2.5-2.5V-531z"/>
			<path class="st2" d="M7.8-564h14.5v1H7.8c-1.4-0.5-2.5,0.6-2.5,2v-0.5C5.3-562.9,6.4-564,7.8-564z"/>
			
				<linearGradient id="SVGID_1_" gradientUnits="userSpaceOnUse" x1="-252.745" y1="1723.9741" x2="-252.745" y2="1723.0608" gradientTransform="matrix(8.5 0 0 -8.5 2175.3594 14098.5)">
				<stop  offset="0" style="stop-color:#1A237E;stop-opacity:0.2"/>
				<stop  offset="1" style="stop-color:#1A237E;stop-opacity:2.000000e-02"/>
			</linearGradient>
			<path class="st3" d="M22.8-556l8.5,8.5v-7.5"/>
			<path class="st4" d="M22.3-564l9,9h-6.5c-1.4,0-2.5-1.1-2.5-2.5V-564z"/>
			
				<radialGradient id="SVGID_2_" cx="-275.7849" cy="1577.9346" r="1.6107" gradientTransform="matrix(26 0 0 -25.9999 7176.5313 40463.168)" gradientUnits="userSpaceOnUse">
				<stop  offset="0" style="stop-color:#FFFFFF"/>
				<stop  offset="1" style="stop-color:#FFFFFF;stop-opacity:0"/>
			</radialGradient>
			<path class="st5" d="M7.8-564h14.5l9,9v24.5c0,1.4-1.1,2.5-2.5,2.5h-21c-1.4,0-2.5-1.1-2.5-2.5v-31C5.3-562.9,6.4-564,7.8-564z"
				/>
		</g>
	</g>
	<path class="st6" d="M17.2,25.6c-2.4-0.4-4.3-2.5-4.3-5.1h1.3c0,2.1,1.7,3.8,3.8,3.8s3.8-1.7,3.8-3.8h1.3c0,2.5-1.8,4.6-4.3,5.1
		v2.6h-1.7V25.6z M16,20.9v-4.1c0-1,0.6-1.9,1.6-2.2c1.4-0.3,2.7,0.7,2.7,2.1l0,4.3c0,1.3-1.2,2.4-2.6,2.1
		C16.6,22.8,16,21.9,16,20.9z"/>
	<text transform="matrix(1 0 0 1 14.1055 31.7349)" class="st7 st8 st9">!</text>
</g>
<g id="error">
</g>
</svg>
