<?xml version="1.0" encoding="utf-8"?>
<!-- Generator: Adobe Illustrator 23.0.0, SVG Export Plug-In . SVG Version: 6.00 Build 0)  -->
<svg version="1.1" id="Layer_1" xmlns="http://www.w3.org/2000/svg" xmlns:xlink="http://www.w3.org/1999/xlink" x="0px" y="0px"
	 viewBox="0 0 36.2 36" style="enable-background:new 0 0 36.2 36;" xml:space="preserve">
<style type="text/css">
	.st0{fill-rule:evenodd;clip-rule:evenodd;fill:#F4B400;}
	.st1{fill-rule:evenodd;clip-rule:evenodd;fill:#BF360C;fill-opacity:0.2;}
	.st2{fill-rule:evenodd;clip-rule:evenodd;fill:#FFFFFF;fill-opacity:0.2;}
	.st3{fill:url(#SVGID_1_);}
	.st4{fill-rule:evenodd;clip-rule:evenodd;fill:#FADA80;}
	.st5{fill-rule:evenodd;clip-rule:evenodd;fill:url(#SVGID_2_);fill-opacity:0.1;}
	.st6{fill-rule:evenodd;clip-rule:evenodd;fill:#F1F1F1;}
</style>
<g id="slides-bg" transform="translate(0,564)">
	<g>
		<path class="st0" d="M7.7-564h14.5l9,9v24.5c0,1.4-1.1,2.5-2.5,2.5h-21c-1.4,0-2.5-1.1-2.5-2.5v-31C5.2-562.9,6.3-564,7.7-564z"/>
		<path class="st1" d="M5.2-531c0,1.4,1.1,2.5,2.5,2h21c1.4,0.5,2.5-0.6,2.5-2v0.5c0,1.4-1.1,2.5-2.5,2.5h-21
			c-1.4,0-2.5-1.1-2.5-2.5V-531z"/>
		<path class="st2" d="M7.7-564h14.5v1H7.7c-1.4-0.5-2.5,0.6-2.5,2v-0.5C5.2-562.9,6.3-564,7.7-564z"/>
		
			<linearGradient id="SVGID_1_" gradientUnits="userSpaceOnUse" x1="-252.7518" y1="1723.973" x2="-252.7518" y2="1723.0587" gradientTransform="matrix(8.5 0 0 -8.5 2175.3594 14098.5)">
			<stop  offset="0" style="stop-color:#1A237E;stop-opacity:0.2"/>
			<stop  offset="1" style="stop-color:#1A237E;stop-opacity:2.000000e-02"/>
		</linearGradient>
		<path class="st3" d="M22.7-556l8.5,8.5v-7.5"/>
		<path class="st4" d="M22.2-564l9,9h-6.5c-1.4,0-2.5-1.1-2.5-2.5V-564z"/>
		
			<radialGradient id="SVGID_2_" cx="-275.788" cy="1577.9346" r="1.6125" gradientTransform="matrix(26 0 0 -25.9999 7176.5313 40463.168)" gradientUnits="userSpaceOnUse">
			<stop  offset="0" style="stop-color:#FFFFFF"/>
			<stop  offset="1" style="stop-color:#FFFFFF;stop-opacity:0"/>
		</radialGradient>
		<path class="st5" d="M7.7-564h14.5l9,9v24.5c0,1.4-1.1,2.5-2.5,2.5h-21c-1.4,0-2.5-1.1-2.5-2.5v-31C5.2-562.9,6.3-564,7.7-564z"/>
	</g>
</g>
<path class="st6" d="M17.2,26.9c-2.8-0.5-5-2.9-5-5.9h1.5c0,2.5,2,4.5,4.5,4.5s4.5-2,4.5-4.5h1.5c0,3-2.2,5.4-5,5.9V30h-2V26.9z
	 M15.7,21.4l0-4.8c0-1.2,0.7-2.3,1.9-2.5c1.7-0.4,3.1,0.8,3.1,2.4l0,5c0,1.6-1.4,2.8-3.1,2.4C16.5,23.7,15.7,22.6,15.7,21.4z"/>
</svg>
